inDegrees=yes
name=ik_S50_A08_T01
DataType=double
version=3
OpenSimVersion=4.3-2021-08-27-4bc7ad9
endheader
time	pelvis_tilt	pelvis_list	pelvis_rotation	pelvis_tx	pelvis_ty	pelvis_tz	hip_flexion_r	hip_adduction_r	hip_rotation_r	knee_angle_r	knee_angle_r_beta	ankle_angle_r	subtalar_angle_r	mtp_angle_r	hip_flexion_l	hip_adduction_l	hip_rotation_l	knee_angle_l	knee_angle_l_beta	ankle_angle_l	subtalar_angle_l	mtp_angle_l	lumbar_extension	lumbar_bending	lumbar_rotation	arm_flex_r	arm_add_r	arm_rot_r	elbow_flex_r	pro_sup_r	wrist_flex_r	wrist_dev_r	arm_flex_l	arm_add_l	arm_rot_l	elbow_flex_l	pro_sup_l	wrist_flex_l	wrist_dev_l
7.119999999999936	-5.944864650585757	-0.9910004696924867	30.06755492514116	0	0.9399999999999999	0	44.72456390701176	-10.11665542548422	-10.32626730044572	55.28837649075916	0.9649642078459756	0	0	0	44.72456390701176	-10.11665542548422	-10.32626730044572	55.28837649075916	0.9649642078459756	0	0	0	-3.514816890942897	-1.968106042889687	3.672933333540302	9.400562872342562	-4.996247762678226	-4.174582775897026	59.09079542254057	106.017701710625	0	0	39.68152601093766	-11.26048088846406	-6.862161910031515	72.60915662382195	88.30222981358992	0	0
7.139999999999936	-5.937356787427473	-0.9902791414772094	30.09349177660053	0	0.9399999999999999	0	44.72466147213562	-10.1165119634244	-10.32600939401217	55.28830773487037	0.964963007829336	0	0	0	44.72466147213562	-10.1165119634244	-10.32600939401217	55.28830773487037	0.964963007829336	0	0	0	-3.508374053126117	-1.969921937658893	3.664252435812192	9.389881979152765	-5.013048870827139	-4.168278814696815	59.09626126419165	106.0126606604816	0	0	40.02339035952912	-11.35003276166287	-6.83293525711671	73.42799438515053	88.63789327405568	0	0
7.159999999999935	-5.929163506876938	-1.004546286479303	30.12080542347944	0	0.9399999999999999	0	44.72473874562054	-10.11639888302599	-10.32580575073091	55.28825306584718	0.9649620536748825	0	0	0	44.72473874562054	-10.11639888302599	-10.32580575073091	55.28825306584718	0.9649620536748825	0	0	0	-3.508842276938588	-1.984803016410586	3.648619690332006	9.402552044055067	-5.026185368476167	-4.160940786683348	59.1110874055939	105.9981012993758	0	0	40.43009140880064	-11.50691026556833	-6.769050214131521	74.32037299263163	89.12403713250318	0	0
7.179999999999935	-5.907892988338808	-0.9920576911688749	30.14224009870872	0	0.9399999999999999	0	44.72484987347272	-10.11623553854762	-10.32551198521926	55.28817482858658	0.9649606881770874	0	0	0	44.72484987347272	-10.11623553854762	-10.32551198521926	55.28817482858658	0.9649606881770874	0	0	0	-3.484676538332249	-1.983481122993407	3.645349388057912	9.336823165453847	-5.064726088311174	-4.13481405523647	59.13018155026029	105.9616661131962	0	0	40.78547915817554	-11.66504958475827	-6.650428400964926	75.28881753411531	89.51589023076855	0	0
7.199999999999934	-5.890891932198661	-0.9933897574840498	30.15455515548793	0	0.9399999999999999	0	44.72493587658898	-10.11610959745703	-10.32528516898274	55.28811410780467	0.9649596283995185	0	0	0	44.72493587658898	-10.11610959745703	-10.32528516898274	55.28811410780467	0.9649596283995185	0	0	0	-3.470562299941224	-1.994162716600991	3.665078022141751	9.33026648653639	-5.092989553952529	-4.140470107278881	59.14084021788277	105.9459258710922	0	0	41.2185453050265	-11.79686677004577	-6.440714538718669	76.24881226482333	89.88230031455842	0	0
7.219999999999934	-5.873877986168159	-0.9814015303901583	30.12793469397839	0	0.9399999999999999	0	44.72501252881254	-10.11599747295073	-10.32508313511189	55.2880599674237	0.9649586834716124	0	0	0	44.72501252881254	-10.11599747295073	-10.32508313511189	55.2880599674237	0.9649586834716124	0	0	0	-3.449817048025078	-1.993221148444831	3.685136750483338	9.294600589789638	-5.143705344035093	-4.104390481379127	59.14634701949824	105.941502000957	0	0	41.59832725411439	-11.84545886039754	-6.250569986196878	75.96881077375451	89.69455380408436	0	0
7.239999999999934	-5.870257014675476	-0.9800057306526431	30.12705137067372	0	0.9399999999999999	0	44.72518584070789	-10.11574296914686	-10.32462506829247	55.28793811499443	0.9649565567455199	0	0	0	44.72518584070789	-10.11574296914686	-10.32462506829247	55.28793811499443	0.9649565567455199	0	0	0	-3.446382885355837	-1.994481921014897	3.701501211509407	9.295779083086924	-5.173777991367072	-4.094115782801986	59.14816568070177	105.9342299002032	0	0	42.08927436830911	-12.07842685879667	-6.03989063725903	78.23314540673815	90.5569763905591	0	0
7.259999999999933	-5.853351593737303	-0.9712935023305345	30.13822926686164	0	0.9399999999999999	0	44.7253003624767	-10.11557515943088	-10.32432275201546	55.2878575185822	0.9649551500727613	0	0	0	44.7253003624767	-10.11557515943088	-10.32432275201546	55.2878575185822	0.9649551500727613	0	0	0	-3.427708686363962	-1.995095625041124	3.707096264601915	9.257881499542764	-5.162865013036948	-4.112046131371565	59.13669679302235	105.945200214087	0	0	42.57633600205885	-12.21787063894332	-5.883329997141809	79.17904116190358	91.12438810771459	0	0
7.279999999999933	-5.823607004148639	-0.9729204843170836	30.15531072927747	0	0.9399999999999999	0	44.72538520197926	-10.11545144721847	-10.32409948079415	55.28779757947549	0.9649541039379986	0	0	0	44.72538520197926	-10.11545144721847	-10.32409948079415	55.28779757947549	0.9649541039379986	0	0	0	-3.402864173538186	-2.011563065603125	3.71390381755422	9.235929059490411	-5.137104112224868	-4.126183264925318	59.13375800450157	105.9517076277633	0	0	43.07350839551979	-12.38911690971952	-5.663689252216797	80.16803745711503	91.93722860360032	0	0
7.299999999999932	-5.818918340414738	-0.967350360335739	30.15122449432992	0	0.9399999999999999	0	44.72564722380127	-10.11513774052654	-10.32347592951011	55.28760881719082	0.9649508094146274	0	0	0	44.72564722380127	-10.11513774052654	-10.32347592951011	55.28760881719082	0.9649508094146274	0	0	0	-3.397448042206466	-2.006395247398847	3.712695363336905	9.229265964264762	-5.141173906512572	-4.133902641360581	59.13868336263958	105.9402316075618	0	0	43.05771337540075	-12.39243264602421	-5.674632552021574	80.17524225302897	91.9319612909575	0	0
7.319999999999932	-5.797294573478019	-0.9564528125723553	30.15337009147557	0	0.9399999999999999	0	44.72574425960848	-10.11499633353302	-10.32322058384671	55.28754035892057	0.9649496145924114	0	0	0	44.72574425960848	-10.11499633353302	-10.32322058384671	55.28754035892057	0.9649496145924114	0	0	0	-3.373315978659164	-2.008217078084235	3.722130620352837	9.185730071348177	-5.138475180850936	-4.151410813201303	59.10979924714071	105.9658618010962	0	0	43.56897617344835	-12.53279565298611	-5.494160456487478	81.1906909634682	92.65112110212269	0	0
